<svg id="visual" viewBox="0 0 1920 1080" width="1920" height="1080" xmlns="http://www.w3.org/2000/svg" xmlns:xlink="http://www.w3.org/1999/xlink" version="1.1"><rect x="0" y="0" width="1920" height="1080" fill="#ffffff"></rect><defs><linearGradient id="grad1_0" x1="43.8%" y1="100%" x2="100%" y2="0%"><stop offset="14.444444444444446%" stop-color="#f6f6f6" stop-opacity="1"></stop><stop offset="85.55555555555554%" stop-color="#f6f6f6" stop-opacity="1"></stop></linearGradient></defs><defs><linearGradient id="grad1_1" x1="43.8%" y1="100%" x2="100%" y2="0%"><stop offset="14.444444444444446%" stop-color="#f6f6f6" stop-opacity="1"></stop><stop offset="85.55555555555554%" stop-color="#ffffff" stop-opacity="1"></stop></linearGradient></defs><defs><linearGradient id="grad2_0" x1="0%" y1="100%" x2="56.3%" y2="0%"><stop offset="14.444444444444446%" stop-color="#f6f6f6" stop-opacity="1"></stop><stop offset="85.55555555555554%" stop-color="#f6f6f6" stop-opacity="1"></stop></linearGradient></defs><defs><linearGradient id="grad2_1" x1="0%" y1="100%" x2="56.3%" y2="0%"><stop offset="14.444444444444446%" stop-color="#ffffff" stop-opacity="1"></stop><stop offset="85.55555555555554%" stop-color="#f6f6f6" stop-opacity="1"></stop></linearGradient></defs><g transform="translate(1920, 1080)"><path d="M-918 0C-841.8 -105.2 -765.6 -210.3 -697.5 -288.9C-629.4 -367.5 -569.4 -419.6 -521.1 -521.1C-472.8 -622.7 -436.2 -773.7 -351.3 -848.1C-266.4 -922.5 -133.2 -920.3 0 -918L0 0Z" fill="#fafafa"></path><path d="M-459 0C-420.9 -52.6 -382.8 -105.2 -348.8 -144.5C-314.7 -183.8 -284.7 -209.8 -260.6 -260.6C-236.4 -311.3 -218.1 -386.9 -175.7 -424.1C-133.2 -461.3 -66.6 -460.1 0 -459L0 0Z" fill="#f6f6f6"></path></g><g transform="translate(0, 0)"><path d="M918 0C769 60.3 620.1 120.5 599.6 248.4C579.1 376.2 687.1 571.6 649.1 649.1C611.1 726.6 427.2 686.2 294.7 711.4C162.1 736.5 81.1 827.3 0 918L0 0Z" fill="#fafafa"></path><path d="M459 0C384.5 30.1 310 60.3 299.8 124.2C289.6 188.1 343.6 285.8 324.6 324.6C305.6 363.3 213.6 343.1 147.3 355.7C81.1 368.3 40.5 413.6 0 459L0 0Z" fill="#f6f6f6"></path></g></svg>